<svg width="183" height="40" viewBox="0 0 183 40" fill="none" xmlns="http://www.w3.org/2000/svg">
<path d="M0.99832 21.2488C0.414572 20.5186 0.414572 19.4814 0.998321 18.7512L5.43781 13.1977C6.61852 11.7207 9 12.5556 9 14.4465L9 25.5535C9 27.4444 6.61852 28.2793 5.43781 26.8023L0.99832 21.2488Z" fill="#2E3040"/>
<rect x="5" width="178" height="40" rx="8" fill="#2E3040"/>
<path d="M29.3359 13.2812V23.6406H27.6016V20.1406H24.2344C23.5625 20.8984 22.5625 21.3516 21.4297 21.3594C19.2969 21.3516 17.6953 19.8359 17.6953 17.75C17.6953 15.6406 19.2969 14.1328 21.4297 14.125C22.5547 14.1328 23.5547 14.5781 24.2266 15.3281H27.6016V13.2812H29.3359ZM19.3516 17.75C19.3516 19.0078 20.2188 19.8125 21.4297 19.8125C22.5859 19.8125 23.4688 19.0078 23.4766 17.75C23.4688 16.4844 22.5859 15.6719 21.4297 15.6719C20.2188 15.6719 19.3516 16.4844 19.3516 17.75ZM20.0703 27.1094V22.5781H21.8047V25.7031H29.6953V27.1094H20.0703ZM24.9922 16.7344C25.0781 17.0547 25.1328 17.3906 25.1328 17.75C25.1328 18.0938 25.0859 18.4219 25 18.7344H27.6016V16.7344H24.9922ZM42.4766 13.2656V17.3281H44.4453V18.7812H42.4766V23.4531H40.7109V13.2656H42.4766ZM31.2891 20.6094C34.5234 19.6719 36.4375 17.9141 36.7344 15.7656H31.8828V14.3438H38.6328C38.6406 18.0938 36.1875 20.7734 32.0078 21.9844L31.2891 20.6094ZM33.3984 27.1094V22.4062H35.1641V25.7031H43.0078V27.1094H33.3984ZM60.2578 14.125V15.3906C60.25 16.7109 60.25 18.1562 59.8828 20.1562H61.8359V21.5625H56.2266V27.4062H54.4766V21.5625H48.9609V20.1562H58.1172C58.5078 18.2344 58.5234 16.7891 58.5234 15.5312H50.4766V14.125H60.2578ZM75.6641 20.1719V21.5625H62.7891V20.1719H68.3516V18.7656H64.3672V13.8438H74.1172V15.2188H66.1016V17.3594H74.2422V18.7656H70.0859V20.1719H75.6641ZM64.2109 24.0625V22.6719H74.1172V27.4375H72.3984V24.0625H64.2109ZM85.7578 16.6562C85.7422 19.25 87.1094 21.8438 89.3984 22.8281L88.3672 24.2188C86.7422 23.4688 85.5547 21.9766 84.8984 20.1328C84.25 22.1172 83.0312 23.7422 81.3203 24.5469L80.2578 23.0938C82.6094 22.0781 83.9844 19.3828 83.9922 16.6562V14.4062H85.7578V16.6562ZM90.4141 27.4062V13.2656H92.1641V27.4062H90.4141ZM98.5078 26V24.5312L102.508 20.6719C103.648 19.5312 104.242 18.8594 104.242 17.9062C104.242 16.8516 103.406 16.1875 102.305 16.1875C101.141 16.1875 100.391 16.9141 100.398 18.0625H98.4609C98.4531 15.9219 100.062 14.5312 102.32 14.5312C104.633 14.5312 106.188 15.9141 106.195 17.8125C106.188 19.0859 105.578 20.1172 103.352 22.2188L101.336 24.2188V24.2969H106.367V26H98.5078ZM119.805 13.2656V27.3906H118.133V20.1406H116.617V26.7344H114.992V13.6406H116.617V18.7344H118.133V13.2656H119.805ZM107.57 23.2344C110.578 21.5 111.852 19.2656 112.102 16.4375H108.227V15.0469H113.789C113.789 18.8672 112.586 22.1484 108.57 24.4375L107.57 23.2344ZM133.352 13.2812V21.5156H131.602V20.9375H128.961V19.875H131.602V13.2812H133.352ZM121.492 18.375C124.219 18.375 127.633 18.3516 130.664 18.0469L130.758 19.1406C129.469 19.3125 128.141 19.4297 126.836 19.4922V21.5312H125.117V19.5625C123.906 19.5938 122.742 19.6016 121.68 19.5938L121.492 18.375ZM122.492 15.625C122.492 14.3438 123.906 13.5078 126.055 13.5C128.156 13.5078 129.578 14.3438 129.586 15.625C129.578 16.9375 128.156 17.7344 126.055 17.7344C123.906 17.7344 122.492 16.9375 122.492 15.625ZM123.555 23.1406V21.9531H133.352V25.125H125.32V26.0312H133.727V27.2656H123.617V23.9844H131.633V23.1406H123.555ZM124.148 15.625C124.133 16.2188 124.867 16.5859 126.055 16.5781C127.219 16.5859 127.961 16.2188 127.961 15.625C127.961 15.0312 127.219 14.6484 126.055 14.6562C124.867 14.6484 124.133 15.0312 124.148 15.625ZM152.023 21.2656V22.6719H146.398V27.375H144.68V22.6719H139.117V21.2656H152.023ZM140.695 19.6094V13.9844H150.445V19.6094H140.695ZM142.398 18.25H148.711V15.375H142.398V18.25ZM165.867 24.3125V25.75H152.961V24.3125H156.383V21.9844H154.492V17.375H162.617V15.6406H154.461V14.2344H164.336V18.7656H156.227V20.5781H164.664V21.9844H162.602V24.3125H165.867ZM158.07 24.3125H160.898V21.9844H158.07V24.3125ZM169.695 14.6875L169.523 22.6719H167.758L167.57 14.6875H169.695ZM167.43 24.9062C167.422 24.25 167.977 23.7109 168.648 23.7031C169.297 23.7109 169.852 24.25 169.852 24.9062C169.852 25.5781 169.297 26.125 168.648 26.125C167.977 26.125 167.422 25.5781 167.43 24.9062Z" fill="white"/>
</svg>
