<svg width="126" height="115" viewBox="0 0 126 115" fill="none" xmlns="http://www.w3.org/2000/svg">
<path d="M32.333 17.6464C32.333 13.2885 35.8834 9.75574 40.263 9.75574H107.07C111.449 9.75574 115 13.2885 115 17.6464V56.1545C115 60.5124 111.449 64.0451 107.07 64.0451H40.263C35.8834 64.0451 32.333 60.5124 32.333 56.1545V17.6464Z" fill="#7580EA"/>
<g filter="url(#filter0_b_1_1106)">
<path d="M12.3549 44.5005L43.0763 17.6002L75.1526 45.6869L103.941 20.4791C105.223 19.3565 107.229 20.2681 107.229 21.9733V75.4512C107.229 76.5964 106.735 77.6858 105.874 78.4397L75.1526 105.34L43.0763 77.2533L14.2878 102.461C13.0057 103.584 11 102.672 11 100.967V47.489C11 46.3438 11.4939 45.2544 12.3549 44.5005Z" fill="url(#paint0_linear_1_1106)" fill-opacity="0.2"/>
</g>
<path fill-rule="evenodd" clip-rule="evenodd" d="M43.0735 17.4355L75.1498 45.5221L103.857 20.3857C105.219 19.193 107.35 20.1616 107.35 21.9734V75.4512C107.35 76.6322 106.841 77.7557 105.953 78.5331L75.1498 105.505L43.0735 77.4182L14.3665 102.555C13.0044 103.747 10.8733 102.779 10.8733 100.967V47.4891C10.8733 46.3081 11.3826 45.1847 12.2705 44.4072L43.0735 17.4355ZM43.1974 77.1971L75.0259 105.067V45.7433L43.1974 17.8736V77.1971ZM42.9496 17.8736V77.1971L14.2034 102.368C13.0015 103.42 11.1211 102.566 11.1211 100.967V47.4891C11.1211 46.3797 11.5996 45.3243 12.4337 44.594L42.9496 17.8736ZM75.2738 45.7433V105.067L105.79 78.3464C106.624 77.616 107.102 76.5607 107.102 75.4512V21.9734C107.102 20.3747 105.222 19.5201 104.02 20.5725L75.2738 45.7433Z" fill="url(#paint1_linear_1_1106)"/>
<path fill-rule="evenodd" clip-rule="evenodd" d="M43.0735 17.4355L75.1498 45.5221L103.857 20.3857C105.219 19.193 107.35 20.1616 107.35 21.9734V75.4512C107.35 76.6322 106.841 77.7557 105.953 78.5331L75.1498 105.505L43.0735 77.4182L14.3665 102.555C13.0044 103.747 10.8733 102.779 10.8733 100.967V47.4891C10.8733 46.3081 11.3826 45.1847 12.2705 44.4072L43.0735 17.4355ZM43.1974 77.1971L75.0259 105.067V45.7433L43.1974 17.8736V77.1971ZM42.9496 17.8736V77.1971L14.2034 102.368C13.0015 103.42 11.1211 102.566 11.1211 100.967V47.4891C11.1211 46.3797 11.5996 45.3243 12.4337 44.594L42.9496 17.8736ZM75.2738 45.7433V105.067L105.79 78.3464C106.624 77.616 107.102 76.5607 107.102 75.4512V21.9734C107.102 20.3747 105.222 19.5201 104.02 20.5725L75.2738 45.7433Z" fill="url(#paint2_radial_1_1106)"/>
<rect width="23.4008" height="3.10134" rx="1.55067" transform="matrix(0.754307 -0.656522 0.655596 0.755112 81.1643 53.4628)" fill="white"/>
<rect width="23.4008" height="3.10134" rx="1.55067" transform="matrix(0.754307 -0.656522 0.655596 0.755112 81.1643 62.4984)" fill="white"/>
<defs>
<filter id="filter0_b_1_1106" x="-6.75462" y="-0.154398" width="131.738" height="123.249" filterUnits="userSpaceOnUse" color-interpolation-filters="sRGB">
<feFlood flood-opacity="0" result="BackgroundImageFix"/>
<feGaussianBlur in="BackgroundImageFix" stdDeviation="8.87731"/>
<feComposite in2="SourceAlpha" operator="in" result="effect1_backgroundBlur_1_1106"/>
<feBlend mode="normal" in="SourceGraphic" in2="effect1_backgroundBlur_1_1106" result="shape"/>
</filter>
<linearGradient id="paint0_linear_1_1106" x1="55" y1="104.985" x2="107.067" y2="51.2046" gradientUnits="userSpaceOnUse">
<stop stop-color="#7580EA"/>
<stop offset="0.441244" stop-color="#7580EA" stop-opacity="0.400529"/>
<stop offset="1" stop-color="#7580EA" stop-opacity="0.2"/>
</linearGradient>
<linearGradient id="paint1_linear_1_1106" x1="24.7574" y1="14.2902" x2="110.812" y2="69.3307" gradientUnits="userSpaceOnUse">
<stop offset="0.188941" stop-color="#E7F0FF" stop-opacity="0.523483"/>
<stop offset="0.526042" stop-color="#B0C3FF"/>
<stop offset="1" stop-color="#B4D2FF" stop-opacity="0.1"/>
</linearGradient>
<radialGradient id="paint2_radial_1_1106" cx="0" cy="0" r="1" gradientUnits="userSpaceOnUse" gradientTransform="translate(25.2914 102.622) rotate(-48.4011) scale(71.8535 119.248)">
<stop stop-color="white"/>
<stop offset="1" stop-color="white" stop-opacity="0"/>
</radialGradient>
</defs>
</svg>
