<svg width="126" height="115" viewBox="0 0 126 115" fill="none" xmlns="http://www.w3.org/2000/svg">
<g filter="url(#filter0_b_1_1139)">
<path d="M17.8827 73.6321C14.735 71.8722 14.7151 68.9838 17.8382 67.1807L57.4966 44.2839C60.6197 42.4808 65.7031 42.4458 68.8508 44.2057L108.821 66.5535C111.969 68.3134 111.989 71.2017 108.866 73.0048L69.2072 95.9016C66.0841 97.7048 61.0007 97.7398 57.853 95.9799L17.8827 73.6321Z" fill="#7580EA"/>
</g>
<g filter="url(#filter1_b_1_1139)">
<path fill-rule="evenodd" clip-rule="evenodd" d="M57.8766 44.4964L18.2181 67.3932C15.3033 69.0761 15.3219 71.7719 18.2597 73.4144L58.23 95.7623C61.1678 97.4048 65.9123 97.3721 68.8272 95.6892L108.486 72.7924C111.401 71.1095 111.382 68.4137 108.444 66.7711L68.4738 44.4233C65.536 42.7808 60.7914 42.8135 57.8766 44.4964ZM17.8382 67.1807C14.7151 68.9838 14.735 71.8722 17.8827 73.6321L57.853 95.9799C61.0007 97.7398 66.0841 97.7048 69.2072 95.9016L108.866 73.0048C111.989 71.2017 111.969 68.3134 108.821 66.5535L68.8508 44.2057C65.7031 42.4458 60.6197 42.4808 57.4966 44.2839L17.8382 67.1807Z" fill="url(#paint0_linear_1_1139)"/>
<path fill-rule="evenodd" clip-rule="evenodd" d="M57.8766 44.4964L18.2181 67.3932C15.3033 69.0761 15.3219 71.7719 18.2597 73.4144L58.23 95.7623C61.1678 97.4048 65.9123 97.3721 68.8272 95.6892L108.486 72.7924C111.401 71.1095 111.382 68.4137 108.444 66.7711L68.4738 44.4233C65.536 42.7808 60.7914 42.8135 57.8766 44.4964ZM17.8382 67.1807C14.7151 68.9838 14.735 71.8722 17.8827 73.6321L57.853 95.9799C61.0007 97.7398 66.0841 97.7048 69.2072 95.9016L108.866 73.0048C111.989 71.2017 111.969 68.3134 108.821 66.5535L68.8508 44.2057C65.7031 42.4458 60.6197 42.4808 57.4966 44.2839L17.8382 67.1807Z" fill="url(#paint1_radial_1_1139)"/>
</g>
<g filter="url(#filter2_b_1_1139)">
<path d="M14.6993 49.8375C11.5517 48.0776 11.5318 45.1892 14.6548 43.3861L57.6317 18.5734C60.7547 16.7703 65.8382 16.7353 68.9858 18.4952L112.301 42.7129C115.448 44.4728 115.468 47.3612 112.345 49.1643L69.3683 73.977C66.2452 75.7801 61.1618 75.8151 58.0142 74.0553L14.6993 49.8375Z" fill="url(#paint2_linear_1_1139)" fill-opacity="0.2"/>
</g>
<g filter="url(#filter3_b_1_1139)">
<path fill-rule="evenodd" clip-rule="evenodd" d="M57.8216 18.6797L14.8448 43.4923C11.8258 45.2353 11.8451 48.0274 14.8878 49.7287L58.2027 73.9464C61.2454 75.6476 66.1594 75.6138 69.1784 73.8708L112.155 49.0581C115.174 47.3151 115.155 44.523 112.112 42.8217L68.7973 18.604C65.7546 16.9028 60.8406 16.9366 57.8216 18.6797ZM14.6548 43.3861C11.5318 45.1892 11.5517 48.0776 14.6993 49.8375L58.0142 74.0553C61.1618 75.8151 66.2452 75.7801 69.3683 73.977L112.345 49.1643C115.468 47.3612 115.448 44.4728 112.301 42.7129L68.9858 18.4952C65.8382 16.7353 60.7547 16.7703 57.6317 18.5734L14.6548 43.3861Z" fill="url(#paint3_linear_1_1139)"/>
<path fill-rule="evenodd" clip-rule="evenodd" d="M57.8216 18.6797L14.8448 43.4923C11.8258 45.2353 11.8451 48.0274 14.8878 49.7287L58.2027 73.9464C61.2454 75.6476 66.1594 75.6138 69.1784 73.8708L112.155 49.0581C115.174 47.3151 115.155 44.523 112.112 42.8217L68.7973 18.604C65.7546 16.9028 60.8406 16.9366 57.8216 18.6797ZM14.6548 43.3861C11.5318 45.1892 11.5517 48.0776 14.6993 49.8375L58.0142 74.0553C61.1618 75.8151 66.2452 75.7801 69.3683 73.977L112.345 49.1643C115.468 47.3612 115.448 44.4728 112.301 42.7129L68.9858 18.4952C65.8382 16.7353 60.7547 16.7703 57.6317 18.5734L14.6548 43.3861Z" fill="url(#paint4_radial_1_1139)"/>
</g>
<path d="M54.8102 46.1596C54.8055 45.4878 55.7603 44.9365 56.9427 44.9284L69.7885 44.8398C70.9709 44.8316 71.9332 45.3697 71.9379 46.0415C71.9425 46.7134 70.9877 47.2646 69.8053 47.2728L56.9595 47.3613C55.7771 47.3695 54.8148 46.8314 54.8102 46.1596Z" fill="white"/>
<path d="M63.3405 41.2346C64.5229 41.2265 65.4852 41.7645 65.4898 42.4363L65.5401 49.7352C65.5448 50.4071 64.59 50.9583 63.4076 50.9665C62.2251 50.9746 61.2628 50.4366 61.2582 49.7648L61.2079 42.4659C61.2033 41.794 62.158 41.2428 63.3405 41.2346Z" fill="white"/>
<defs>
<filter id="filter0_b_1_1139" x="2.4495" y="29.849" width="121.805" height="80.4875" filterUnits="userSpaceOnUse" color-interpolation-filters="sRGB">
<feFlood flood-opacity="0" result="BackgroundImageFix"/>
<feGaussianBlur in="BackgroundImageFix" stdDeviation="6.52965"/>
<feComposite in2="SourceAlpha" operator="in" result="effect1_backgroundBlur_1_1139"/>
<feBlend mode="normal" in="SourceGraphic" in2="effect1_backgroundBlur_1_1139" result="shape"/>
</filter>
<filter id="filter1_b_1_1139" x="2.4495" y="29.849" width="121.805" height="80.4875" filterUnits="userSpaceOnUse" color-interpolation-filters="sRGB">
<feFlood flood-opacity="0" result="BackgroundImageFix"/>
<feGaussianBlur in="BackgroundImageFix" stdDeviation="6.52965"/>
<feComposite in2="SourceAlpha" operator="in" result="effect1_backgroundBlur_1_1139"/>
<feBlend mode="normal" in="SourceGraphic" in2="effect1_backgroundBlur_1_1139" result="shape"/>
</filter>
<filter id="filter2_b_1_1139" x="-0.733853" y="4.13852" width="128.468" height="84.2733" filterUnits="userSpaceOnUse" color-interpolation-filters="sRGB">
<feFlood flood-opacity="0" result="BackgroundImageFix"/>
<feGaussianBlur in="BackgroundImageFix" stdDeviation="6.52965"/>
<feComposite in2="SourceAlpha" operator="in" result="effect1_backgroundBlur_1_1139"/>
<feBlend mode="normal" in="SourceGraphic" in2="effect1_backgroundBlur_1_1139" result="shape"/>
</filter>
<filter id="filter3_b_1_1139" x="-0.733853" y="4.13852" width="128.468" height="84.2733" filterUnits="userSpaceOnUse" color-interpolation-filters="sRGB">
<feFlood flood-opacity="0" result="BackgroundImageFix"/>
<feGaussianBlur in="BackgroundImageFix" stdDeviation="6.52965"/>
<feComposite in2="SourceAlpha" operator="in" result="effect1_backgroundBlur_1_1139"/>
<feBlend mode="normal" in="SourceGraphic" in2="effect1_backgroundBlur_1_1139" result="shape"/>
</filter>
<linearGradient id="paint0_linear_1_1139" x1="17.6836" y1="65.185" x2="84.3742" y2="33.7872" gradientUnits="userSpaceOnUse">
<stop offset="0.188941" stop-color="#E7F0FF" stop-opacity="0.523483"/>
<stop offset="0.526042" stop-color="#88A4FF"/>
<stop offset="1" stop-color="#B4D2FF" stop-opacity="0.1"/>
</linearGradient>
<radialGradient id="paint1_radial_1_1139" cx="0" cy="0" r="1" gradientUnits="userSpaceOnUse" gradientTransform="translate(69.4876 93.8285) rotate(-100.836) scale(32.6558 91.8849)">
<stop stop-color="white"/>
<stop offset="1" stop-color="white" stop-opacity="0"/>
</radialGradient>
<linearGradient id="paint2_linear_1_1139" x1="69.8867" y1="15.3086" x2="84.9758" y2="53.4476" gradientUnits="userSpaceOnUse">
<stop stop-color="#7580EA"/>
<stop offset="0.441244" stop-color="#7580EA" stop-opacity="0.400529"/>
<stop offset="1" stop-color="#7580EA" stop-opacity="0.2"/>
</linearGradient>
<linearGradient id="paint3_linear_1_1139" x1="14.8584" y1="41.0479" x2="85.891" y2="7.60587" gradientUnits="userSpaceOnUse">
<stop offset="0.188941" stop-color="#E7F0FF" stop-opacity="0.523483"/>
<stop offset="0.526042" stop-color="#88A4FF"/>
<stop offset="1" stop-color="#B4D2FF" stop-opacity="0.1"/>
</linearGradient>
<radialGradient id="paint4_radial_1_1139" cx="0" cy="0" r="1" gradientUnits="userSpaceOnUse" gradientTransform="translate(70.0352 71.5563) rotate(-100.836) scale(34.7819 97.8673)">
<stop stop-color="white"/>
<stop offset="1" stop-color="white" stop-opacity="0"/>
</radialGradient>
</defs>
</svg>
