<svg width="125" height="115" viewBox="0 0 125 115" fill="none" xmlns="http://www.w3.org/2000/svg">
<path d="M107.175 18.3315C112.333 24.1197 112.671 33.74 108.293 45.0883C103.948 56.3528 95.094 68.8757 82.71 79.9119C70.326 90.9481 56.8701 98.307 45.1815 101.332C33.4059 104.379 23.8878 102.94 18.7296 97.1513C13.5713 91.3631 13.2335 81.7428 17.6114 70.3944C21.9568 59.13 30.8108 46.6071 43.1948 35.5709C55.5788 24.5347 69.0347 17.1758 80.7233 14.1512C92.4989 11.104 102.017 12.5432 107.175 18.3315Z" stroke="#7580EA" stroke-width="3.06106"/>
<path fill-rule="evenodd" clip-rule="evenodd" d="M97.3511 63.4236V33.6582C97.3511 30.1061 95.0675 27.0874 91.8884 25.9899C91.8897 26.0572 91.8903 26.1247 91.8903 26.1924V69.8832C93.8363 67.7536 95.6586 65.5949 97.3511 63.4236ZM89.5981 72.3189C87.6237 74.3564 85.5358 76.3609 83.34 78.3177C78.0636 83.0199 72.5851 87.0716 67.1165 90.418H38.1923L38.1922 90.4178H35.5652C31.086 90.4178 27.4548 86.7866 27.4548 82.3074V65.8674V26.1921C27.4548 26.0217 27.4601 25.8524 27.4705 25.6845C27.5282 24.7497 27.7443 23.8578 28.0922 23.0352C28.4803 22.1176 29.0325 21.2862 29.712 20.578C31.1881 19.0395 33.2648 18.0817 35.5652 18.0817H81.4877C85.9669 18.0817 89.5981 21.7129 89.5981 26.1921V65.8674V72.3189ZM63.17 92.7124C59.41 94.784 55.6789 96.5138 52.0464 97.8839H46.2774C42.8347 97.8839 39.893 95.7389 38.7159 92.7124H63.17ZM59.2729 32.7052C59.6857 44.6817 68.9135 54.2912 80.4142 54.7211C68.9135 55.151 59.6857 64.7605 59.2729 76.737C58.8602 64.7605 49.6324 55.151 38.1317 54.7211C49.6324 54.2912 58.8602 44.6817 59.2729 32.7052Z" fill="#7580EA"/>
</svg>