<svg width="420" height="404" viewBox="0 0 420 404" fill="none" xmlns="http://www.w3.org/2000/svg">
<path d="M350.398 77.1169C366.77 95.4534 367.845 125.933 353.945 161.896C340.149 197.591 312.039 237.275 272.721 272.248C233.403 307.222 190.682 330.541 153.573 340.126C116.186 349.782 85.9737 345.22 69.6021 326.883C53.2305 308.547 52.1555 278.067 66.0548 242.104C79.8509 206.409 107.961 166.725 147.279 131.752C186.597 96.7782 229.318 73.4586 266.427 63.8741C303.814 54.2179 334.026 58.7804 350.398 77.1169Z" stroke="white" stroke-width="9.73858"/>
<path fill-rule="evenodd" clip-rule="evenodd" d="M319.219 220.009V125.781C319.219 114.492 311.97 104.897 301.873 101.396C301.877 101.604 301.879 101.812 301.879 102.021V240.482C308.058 233.733 313.845 226.891 319.219 220.009ZM294.599 248.203C288.331 254.659 281.704 261.01 274.733 267.21C257.981 282.111 240.588 294.951 223.225 305.556H123.044C108.822 305.556 97.293 294.048 97.293 279.853V227.754V102.021C97.293 101.592 97.3035 101.167 97.3242 100.743C97.9912 87.1418 109.251 76.3185 123.044 76.3185H268.848C283.07 76.3185 294.599 87.8258 294.599 102.021V227.754V248.203ZM210.695 312.826C198.757 319.391 186.911 324.873 175.378 329.215H157.111C146.183 329.215 136.841 322.421 133.08 312.826H210.695ZM198.303 99.1989C199.614 139.731 228.912 172.254 265.427 173.708C228.912 175.163 199.614 207.685 198.303 248.218C196.993 207.685 167.694 175.163 131.18 173.708C167.694 172.254 196.993 139.731 198.303 99.1989Z" fill="white"/>
</svg>
