<svg width="721" height="508" viewBox="0 0 721 508" fill="none" xmlns="http://www.w3.org/2000/svg">
<path d="M707.414 45.6071C719.226 64.5028 721.189 88.3488 714.245 115.561C707.299 142.782 691.48 173.175 668.04 204.866C621.167 268.238 544.11 336.408 447.941 394.252C351.772 452.096 254.887 488.548 176.052 500.787C136.628 506.908 101.839 506.955 73.9562 500.682C46.0831 494.412 25.3073 481.881 13.4956 462.985C1.68397 444.09 -0.279 420.244 6.66456 393.032C13.6106 365.81 29.4298 335.417 52.8698 303.727C99.7427 240.355 176.8 172.185 272.969 114.341C369.138 56.497 466.023 20.0446 544.858 7.80518C584.282 1.68452 619.071 1.63796 646.954 7.91054C674.827 14.1809 695.603 26.7113 707.414 45.6071Z" stroke="#7580EA" stroke-width="4.68961"/>
</svg>
